Coordinates
version=1
nRows=6
nColumns=36
inDegrees=yes

Units are S.I. units (second, meters, Newtons, ...)
If the header above contains a line with 'inDegrees', this indicates whether rotational values are in degrees (yes) or radians (no).

endheader
time	pelvis_tilt	pelvis_list	pelvis_rotation	pelvis_tx	pelvis_ty	pelvis_tz	hip_flexion_r	hip_adduction_r	hip_rotation_r	knee_angle_r	knee_angle_r_beta	ankle_angle_r	subtalar_angle_r	mtp_angle_r	hip_flexion_l	hip_adduction_l	hip_rotation_l	knee_angle_l	knee_angle_l_beta	ankle_angle_l	subtalar_angle_l	mtp_angle_l	lumbar_extension	lumbar_bending	lumbar_rotation	arm_flex_r	arm_add_r	arm_rot_r	elbow_flex_r	pro_sup_r	arm_flex_l	arm_add_l	arm_rot_l	elbow_flex_l	pro_sup_l
      0.66666670	     -3.04169268	      0.70493528	     -1.55282262	     -0.97340691	      1.24383075	     -0.01441560	      1.81347444	      1.43689810	      1.94527015	      3.80793114	      0.06646094	      3.33017849	    -12.00042884	     -7.49999987	      6.16229805	     -1.93213854	     -4.60747784	     13.60554942	      0.23746163	      7.35880615	     -4.01376934	     -7.49999987	     -5.85603904	     -0.00079984	      1.48551105	     17.07873737	     -7.93828960	     34.99591684	     96.05841235	     81.37868520	     24.67209800	     -7.93812974	     45.21955776	     88.99559437	     61.45969048
      0.66833330	     -3.20319292	      0.66842565	     -1.50024261	     -0.97178583	      1.24302068	     -0.01398087	      2.14743520	      1.47468980	      1.88115365	      4.05808568	      0.07082696	      3.35370115	    -12.03968794	     -7.49999987	      6.40497724	     -1.96510463	     -4.34801910	     13.64652179	      0.23817674	      7.46813523	     -3.95172767	     -7.49999987	     -5.67864636	      0.00197086	      1.23180281	     16.86410669	     -7.52088900	     34.57855750	     96.99314903	     80.57889414	     24.62053222	     -7.97769301	     44.58655830	     89.51301180	     61.25450801
      0.67000000	     -3.10930357	      0.67735523	     -1.53937635	     -0.97305817	      1.24299287	     -0.01366233	      2.17269297	      1.49304606	      2.32242654	      4.18369252	      0.07301921	      3.04514322	    -12.94723969	     -7.49999987	      6.45551610	     -1.98073937	     -4.32290917	     13.82739383	      0.24133355	      7.53956861	     -3.95253406	     -7.49999987	     -6.04804956	     -0.02996656	      1.48907509	     16.71869122	     -7.29613009	     33.36231907	     98.26086178	     82.41885928	     24.99312499	     -7.81674979	     44.17159547	     90.29884154	     59.58236701
      0.67166670	     -3.21620250	      0.67380438	     -1.50804240	     -0.97296940	      1.24515763	     -0.01449409	      2.37784950	      1.48942316	      2.22408867	      4.28337457	      0.07475899	      3.25936254	    -12.66067454	     -7.49999987	      6.64733337	     -1.99610643	     -4.24417898	     13.88818766	      0.24239460	      7.50687717	     -4.03831237	     -7.49999987	     -5.98669194	     -0.03253121	      1.38844829	     16.85742655	     -6.98157537	     32.97689306	     98.73445324	     82.24550618	     25.06471336	     -7.73763535	     43.40457868	     90.63290369	     59.38419069
      0.67333330	     -3.36032236	      0.65636857	     -1.47492486	     -0.97359037	      1.24333649	     -0.01487202	      2.64070027	      1.49516492	      2.10425736	      4.42069186	      0.07715563	      3.43063714	    -12.45752038	     -7.49999987	      6.90089481	     -2.01661851	     -4.23161465	     13.96866606	      0.24379921	      7.52442936	     -4.11168130	     -7.49999987	     -5.88686844	     -0.05406106	      1.21064554	     17.12768983	     -6.72390847	     32.75078899	     98.98973553	     81.10147367	     25.14507629	     -7.60377840	     42.66069119	     91.02938591	     59.20665113
      0.67500000	     -3.84917659	      0.62271088	     -1.39830591	     -0.97353356	      1.24446781	     -0.01624065	      3.26924464	      1.49246942	      1.92211483	      4.55360535	      0.07947541	      3.63493469	    -12.12406121	     -7.49999987	      7.64729112	     -2.07404294	     -4.27829659	     14.29488075	      0.24949274	      7.59483254	     -4.15810306	     -7.49999987	     -5.16951478	     -0.04507891	      1.10443133	     17.31126811	     -6.51337537	     32.64947380	     98.49226132	     80.28443391	     25.17917115	     -7.37895776	     42.49736307	     90.76608025	     59.20912404
